<svg xmlns="http://www.w3.org/2000/svg" viewBox="0 0 64 64" role="img" aria-label="GitHub">
  <title>GitHub</title>
  <circle cx="32" cy="32" r="26" fill="#111"/>
  <path fill="#fff" d="M22 44c0-4 2-7 5-9-1-1-1-3 0-5 2-1 4-1 5 0 2-1 4-1 6 0 1 2 1 4 0 5 3 2 5 5 5 9 0 2-1 4-4 4h-3v-4c0-1-.4-1.7-1.1-2.2 3.5-.4 7.2-1.7 7.2-7.6 0-1.7-.6-3.1-1.6-4.2.2-.4.7-2 0-4.1 0 0-1.3-.4-4.2 1.6-1.2-.3-2.5-.5-3.8-.5s-2.6.2-3.8.5c-2.9-2-4.2-1.6-4.2-1.6-.7 2.1-.2 3.7 0 4.1-1 1.1-1.6 2.5-1.6 4.2 0 5.9 3.7 7.2 7.2 7.6-.5.3-.9.9-1 1.6-.9.4-3.2 1.1-4.6-1.3 0 0-.8-1.4-2.4-1.5 0 0-1.5 0-.1 1 0 0 1 .5 1.7 2.1 0 0 .9 2.8 5.3 1.9V52h-3c-3 0-4-2-4-4z"/>
</svg>
