<svg xmlns="http://www.w3.org/2000/svg" viewBox="0 0 64 64" role="img" aria-label="Java">
  <title>Java</title>
  <path fill="#E76F51" d="M34 8c4 3 2 6-1 9-3 3-2 6 3 9-7-2-9-7-4-12 2-2 3-4 2-6z"/>
  <path fill="#E76F51" d="M28 10c3 2 2 5 0 7-2 2-2 4 2 6-6-2-7-6-4-9 1-1 2-3 2-4z"/>
  <path fill="#2B6CB0" d="M22 26h22c2.8 0 5 2.2 5 5v6c0 7-6.8 13-16 13S17 44 17 37v-6c0-2.8 2.2-5 5-5z"/>
  <path fill="#1F4D84" d="M17 37c0 7 7.2 13 16 13s16-6 16-13H17z"/>
  <path fill="#fff" d="M24 31h16a3 3 0 0 1 3 3v2c0 4.2-4.8 7.8-11 7.8S21 40.2 21 36v-2a3 3 0 0 1 3-3z" opacity=".15"/>
</svg>
