<svg xmlns="http://www.w3.org/2000/svg" viewBox="0 0 64 64" role="img" aria-label="JavaScript">
  <title>JavaScript</title>
  <rect x="6" y="6" width="52" height="52" rx="10" fill="#F7DF1E"/>
  <path fill="#111" d="M26.5 44.8c.8 1.3 1.8 2.3 3.7 2.3 1.6 0 2.7-.8 2.7-2 0-1.4-1.1-1.9-3-2.7l-1-.4c-2.9-1.2-4.8-2.8-4.8-6.1 0-3 2.3-5.4 6-5.4 2.6 0 4.5.9 5.8 3.3l-3.2 2c-.7-1.3-1.5-1.8-2.6-1.8-1.2 0-2 .8-2 1.8 0 1.3.8 1.8 2.7 2.6l1 .4c3.4 1.5 5.3 3 5.3 6.4 0 3.7-2.9 5.7-6.7 5.7-3.8 0-6.2-1.8-7.4-4.1l3.5-2.1z"/>
  <path fill="#111" d="M44.8 45.1c.6 1.1 1.5 2 3 2 1.3 0 2.1-.6 2.1-3V30.2h4.3v14c0 4.3-2.5 6.2-6.1 6.2-3.3 0-5.2-1.7-6.1-3.7l2.8-1.6z"/>
</svg>
